<svg xmlns="http://www.w3.org/2000/svg" viewBox="0 0 400 300"><path fill="none" d="M101.89 160.73h-2.33c-.12.18.75.16 2.33 0"/><path fill="#034779" d="M295.19 109.48v5.6a85 85 0 0 0 10.61-10.57v-6.34c-3.29 4.18-6.9 7.97-10.61 11.32Zm-14.42 6.44c1.45-.22 2.97-.81 4.55-1.93 16.77-11.83 31.52-31.06 32.63-52.04-11.54 17.92-31.47 31.35-53.03 32.57 6.08 5.85 11.54 12.9 15.85 21.4"/><path fill="#bc2522" d="M240.2 143.9c-21.37 5.62-44.07 12.05-62.83 16.83-9.18 2.53-17.99 5.26-26.6 8.62-19.86 7.77-38.58 19.03-57.87 39.67l-1.47 36.15c18.64-22.19 46.53-39.42 74.74-51.3 9.72-4.09 19.47-7.55 28.9-10.35 12.79-3.01 26.56-6.63 40.11-11.31 9.41-3.25 18.7-7.03 27.49-11.49 9.69-4.92 18.75-10.66 26.64-17.46 15.13-13.03 25.96-29.91 28.65-52.19-7.94 15.16-19.49 26.27-32.99 34.63-13.5 8.37-28.96 14-44.76 18.19"/><path fill="#034779" d="M295.19 150.65c-1.57 1.3-3.17 2.57-4.78 3.8-2.91 2.21-5.88 4.3-8.93 6.28-16.46 10.71-34.83 18.35-53.7 25.21-8.53 11.9-20.73 19.36-34.28 19.36-4.58 0-9-.87-13.18-2.45-28.16 10.8-54.69 24.22-74.75 48.07h-4.9c-3.92 0-7.11-3.19-7.11-7.11V187.1c5.69-5.09 8.9-8.17 16.5-13.36 5.11-3.49 13.65-9.22 21.32-13.01h17.02a77 77 0 0 1-1.63-15.81c0-33.35 20.92-60.38 46.72-60.38s46.28 26.49 46.7 59.36c15.8-4.19 31.26-9.82 44.76-18.19a83 83 0 0 0-4.19-9.79c1.45-.22 2.97-.81 4.55-1.93 16.77-11.83 31.52-31.06 32.63-52.04-11.54 17.92-31.47 31.35-53.03 32.57-28.08-27.02-69.18-28.4-69.18-28.4-55.57-.45-95.55 36.91-96.16 93.31 0-.01-.04-.02-.03-.03-2.24 1.22-4.21 2.37-6 3.5V56.4c0-3.92 3.19-7.11 7.11-7.11h194.52v32.03a71 71 0 0 0 10.61-8.61V38.68H100.67c-9.79 0-17.72 7.93-17.72 17.72v187.41c0 9.79 7.93 17.72 17.72 17.72h187.41c9.79 0 17.72-7.93 17.72-17.72V129.3c-3.08 4.27-6.62 8.33-10.61 12.17zm-7.11 100.27H157.04c9.73-3.11 18.15-10.39 43.22-26.52 31.07-17.4 67.03-35.08 89.96-63.67.12-.14.23-.28.35-.43 1.61-2.03 3.15-4.11 4.62-6.25v89.75c0 3.92-3.19 7.11-7.11 7.11Z"/></svg>